<svg id="Layer_1" data-name="Layer 1" xmlns="http://www.w3.org/2000/svg" xmlns:xlink="http://www.w3.org/1999/xlink" viewBox="0 0 200 200"><defs><style>.cls-1{fill:#444b53;}.cls-2{fill:#343a40;}.cls-3{fill:#ff4713;}.cls-4{fill:#fff;}.cls-5{fill:#fefcfc;}</style><symbol id="Grey" data-name="Grey" viewBox="0 0 160 200"><path class="cls-1" d="M8.48,0A8.48,8.48,0,0,0,0,8.48v183A8.48,8.48,0,0,0,8.48,200h143a8.48,8.48,0,0,0,8.48-8.48V40L120,0Z"/><path class="cls-2" d="M120,33a7,7,0,0,0,7,7h33L120,0Z"/></symbol></defs><title>pdf</title><use width="160" height="200" transform="translate(40)" xlink:href="#Grey"/><rect class="cls-3" y="20" width="140" height="50"/><path class="cls-4" d="M38.56,49.48V60.75H32v-32H44.45a14.42,14.42,0,0,1,6.34,1.32A9.72,9.72,0,0,1,55,33.82a10.46,10.46,0,0,1,1.47,5.53,9.16,9.16,0,0,1-3.22,7.41Q50,49.48,44.34,49.48Zm0-5.34h5.89a5.81,5.81,0,0,0,4-1.23,4.49,4.49,0,0,0,1.37-3.52,5.3,5.3,0,0,0-1.38-3.8A5.18,5.18,0,0,0,44.6,34.1h-6Z"/><path class="cls-4" d="M60.13,60.75v-32H70a14.9,14.9,0,0,1,7.54,1.9,13.27,13.27,0,0,1,5.2,5.4,16.66,16.66,0,0,1,1.87,8V45.5a16.63,16.63,0,0,1-1.84,7.93,13.11,13.11,0,0,1-5.17,5.39A15.07,15.07,0,0,1,70,60.75ZM66.72,34.1V55.45h3.19a7.16,7.16,0,0,0,5.91-2.52q2-2.53,2.09-7.23V44c0-3.26-.68-5.72-2-7.4A7.16,7.16,0,0,0,70,34.1Z"/><path class="cls-4" d="M108.34,47.68H95.68V60.75H89.09v-32h20.83V34.1H95.68v8.26h12.66Z"/><path class="cls-5" d="M141.43,139.9a52.91,52.91,0,0,1,18.07,2.89,17.36,17.36,0,0,1,8,5.7,10.17,10.17,0,0,1,2,8.87c-.88,3.69-3.66,5.48-7.1,6.33a13.07,13.07,0,0,1-8.89-1.15c-5.54-2.64-10.14-6.55-14.51-10.77-1.56-1.52-3.07-3.09-4.56-4.68a1.65,1.65,0,0,0-1.6-.57,145.74,145.74,0,0,0-27.64,6.5,3.19,3.19,0,0,0-1.65,1.37,95.23,95.23,0,0,1-11.9,14.87,24,24,0,0,1-9.49,6.27c-5.53,1.75-9.23-1.52-8.18-7.24a14,14,0,0,1,4.15-7.4c4.23-4.26,9.35-7.21,14.76-9.69,2-.94,4.16-1.77,6.26-2.6a2.86,2.86,0,0,0,1.5-1.17A139.64,139.64,0,0,0,114,120.77a4,4,0,0,0-.06-3c-2.72-7.27-4.65-14.69-4-22.56a24.48,24.48,0,0,1,1.18-5.86c1.61-4.8,8.12-6.64,11.66-4.44s4.28,3.25,3.85,7.51a126.78,126.78,0,0,1-5,25.16,2.87,2.87,0,0,0,.24,2.46,107.49,107.49,0,0,0,14,19.32,1.55,1.55,0,0,0,1.37.54C138.56,139.87,140,139.9,141.43,139.9ZM92.5,158.33A36.57,36.57,0,0,0,82,165.85a6.13,6.13,0,0,0-1.87,4c5.53-2.57,9.14-6.83,12.59-11.29l.13-.24Zm17.12-13.43a2,2,0,0,0,1-.16,139.83,139.83,0,0,1,16.8-3.7c1.21-.2,1.15-.45.46-1.27a109.78,109.78,0,0,1-8.82-12c-.2-.32-.31-.73-.78-.9a150.07,150.07,0,0,1-8.61,17.55,1.48,1.48,0,0,0,0,.48l-.14,0s.07,0,.08,0A.36.36,0,0,0,109.62,144.9Zm32.77,1.29a55.42,55.42,0,0,0,10,8.59,22.61,22.61,0,0,0,4.71,2.5,6.41,6.41,0,0,0,4.1.28c2.29-.66,3-2.08,2-4.24a8.85,8.85,0,0,0-4.91-4.29C153.19,146.9,147.85,146.32,142.39,146.19Zm-24.87-38a94.79,94.79,0,0,0,2.78-16.57c.08-1-.48-1.23-1.22-1.31-1.22-.15-2,.47-2.39,1.91C115.39,97.58,116,102.88,117.52,108.16Z"/></svg>