<svg width="24" height="24" viewBox="0 0 24 24" fill="none" xmlns="http://www.w3.org/2000/svg">
<path d="M13.9266 4C13.5288 4 13.1473 4.15804 12.866 4.43934C12.5847 4.72064 12.4266 5.10218 12.4266 5.5C12.4266 5.89782 12.5847 6.27936 12.866 6.56066C13.1473 6.84196 13.5288 7 13.9266 7C14.3245 7 14.706 6.84196 14.9873 6.56066C15.2686 6.27936 15.4266 5.89782 15.4266 5.5C15.4266 5.10218 15.2686 4.72064 14.9873 4.43934C14.706 4.15804 14.3245 4 13.9266 4ZM13.5666 8.77C12.3766 8.87 9.12664 11.46 9.12664 11.46C8.92664 11.61 8.98664 11.6 9.14664 11.88C9.30664 12.15 9.28664 12.17 9.47664 12.04C9.67664 11.91 10.0066 11.7 10.5566 11.36C12.6766 10 10.8966 13.14 9.98664 18.43C9.62664 21.05 11.9866 19.7 12.5966 19.3C13.1966 18.91 14.8066 17.8 14.9666 17.69C15.1866 17.54 15.0266 17.42 14.8566 17.17C14.7366 17 14.6166 17.12 14.6166 17.12C13.9666 17.55 12.7766 18.45 12.6166 17.88C12.4266 17.31 13.6466 13.4 14.3166 10.71C14.4266 10.07 14.7266 8.67 13.5666 8.77Z" fill="#444B53"/>
</svg>
