<svg width="24" height="24" viewBox="0 0 24 24" fill="none" xmlns="http://www.w3.org/2000/svg">
<g clip-path="url(#clip0_1135_10058)">
<path d="M11.9835 22.5C10.164 19.737 7.53302 17.928 5.10152 15.918C3.82127 14.8597 2.55152 13.7872 1.60502 12.417C0.177017 10.3492 -0.456733 8.12472 0.364517 5.65947C1.67702 1.71972 5.11502 0.924721 8.12927 1.87572C9.77102 2.39322 10.7753 3.30897 11.9918 5.30697C12.099 5.12322 12.1868 4.97322 12.2738 4.82247C13.7018 2.33997 16.4985 1.05222 19.3418 1.64172C21.8925 2.17047 23.2058 3.92247 23.79 6.26022C24.3563 8.52447 23.7488 10.614 22.3485 12.4117C21.4073 13.6207 20.238 14.6737 19.0943 15.7155C18.0233 16.6912 16.8473 17.5567 15.7245 18.4792C14.3205 19.6327 13.0508 20.91 11.9835 22.5Z" fill="white"/>
</g>
<defs>
<clipPath id="clip0_1135_10058">
<rect width="24" height="24" fill="white"/>
</clipPath>
</defs>
</svg>
